<svg width="59" height="22" viewBox="0 0 59 22" fill="none" xmlns="http://www.w3.org/2000/svg">
<path d="M4.95923 19.4792C6.87923 19.4792 7.83923 18.7112 7.83923 17.1752C7.83923 16.3752 7.41523 15.7832 6.56723 15.3992C6.11923 15.1752 5.53523 14.9672 4.81523 14.7752C4.11123 14.5832 3.51923 14.3912 3.03923 14.1992C2.57523 13.9912 2.10323 13.7112 1.62323 13.3592C0.679234 12.6552 0.207234 11.5752 0.207234 10.1192C0.207234 8.64716 0.711234 7.49516 1.71923 6.66316C2.74323 5.81516 4.07123 5.39116 5.70323 5.39116C7.35123 5.39116 8.87923 5.71916 10.2872 6.37516V9.97516L7.83923 10.1432V8.75116C7.83923 8.51116 7.80723 8.33516 7.74323 8.22316C7.56723 7.91916 6.99923 7.76716 6.03923 7.76716C5.09523 7.76716 4.39123 7.93516 3.92723 8.27116C3.47923 8.60716 3.25523 9.12716 3.25523 9.83116C3.25523 10.3432 3.44723 10.7912 3.83123 11.1752C4.08723 11.4312 4.46323 11.6472 4.95923 11.8232C5.47123 11.9832 6.00723 12.1512 6.56723 12.3272C7.14323 12.5032 7.64723 12.6952 8.07923 12.9032C8.52723 13.1112 8.99123 13.3992 9.47123 13.7672C10.4472 14.4872 10.9352 15.5992 10.9352 17.1032C10.9352 18.6072 10.3912 19.7912 9.30323 20.6552C8.23123 21.5192 6.80723 21.9512 5.03123 21.9512C3.27123 21.9512 1.68723 21.6232 0.279234 20.9672V17.1752L2.72723 17.0072V18.4712C2.72723 18.7112 2.75923 18.8872 2.82323 18.9992C2.88723 19.1112 3.07923 19.2232 3.39923 19.3352C3.73523 19.4312 4.25523 19.4792 4.95923 19.4792ZM8.43923 0.207159L9.42323 1.02316L6.59123 4.09516C6.25523 4.46316 5.91923 4.64716 5.58323 4.64716L4.62323 4.14316L1.74323 1.04716L2.72723 0.207159L5.60723 2.27116L8.43923 0.207159ZM13.4423 21.6392V19.6952L14.3063 19.6232C14.7223 19.5912 14.9303 19.3672 14.9303 18.9512V7.79116L13.5623 7.71916V5.67916H17.8823L24.6743 16.6952H24.7223V7.79116L23.1383 7.71916V5.67916H28.9943V7.62316L28.1303 7.69516C27.7463 7.72716 27.5543 7.97516 27.5543 8.43916V21.6392H24.7463L17.8103 10.4552H17.7623V19.5272L19.3223 19.5992V21.6392H13.4423ZM35.8842 18.9512V15.5432L31.8042 7.79116L30.6762 7.71916V5.67916H36.5322V7.62316L35.8122 7.69516C35.5562 7.71116 35.3882 7.80716 35.3082 7.98316C35.2442 8.15916 35.2762 8.37516 35.4042 8.63116L37.4442 12.8072H37.5402L40.1562 7.81516L38.9562 7.71916V5.67916H44.1162V7.62316L43.3962 7.69516C43.0922 7.72716 42.8202 7.96716 42.5802 8.41516L38.8122 15.5432V19.5272L40.6842 19.5992V21.6392H33.9162V19.6952L35.1882 19.6232C35.6522 19.5912 35.8842 19.3672 35.8842 18.9512ZM50.4357 18.9512V8.05516H48.5637C48.1957 8.05516 48.0117 8.30316 48.0117 8.79916V9.92716L45.5637 9.75916V5.67916H58.1157V9.75916L55.6677 9.92716V8.79916C55.6677 8.52716 55.6277 8.33516 55.5477 8.22316C55.4677 8.11116 55.2757 8.05516 54.9717 8.05516H53.3397V19.5272L55.2357 19.5992V21.6392H48.4677V19.6952L49.7397 19.6232C50.2037 19.5752 50.4357 19.3512 50.4357 18.9512Z" fill="#272727"/>
</svg>
