<svg width="59" height="22" viewBox="0 0 59 22" fill="none" xmlns="http://www.w3.org/2000/svg">
<g clip-path="url(#clip0_200_266)">
<path d="M4.95903 19.4792C6.87903 19.4792 7.83903 18.7112 7.83903 17.1752C7.83903 16.3752 7.41503 15.7832 6.56703 15.3992C6.11903 15.1752 5.53503 14.9672 4.81503 14.7752C4.11103 14.5832 3.51903 14.3912 3.03903 14.1992C2.57503 13.9912 2.10303 13.7112 1.62303 13.3592C0.679031 12.6552 0.207031 11.5752 0.207031 10.1192C0.207031 8.64715 0.711031 7.49515 1.71903 6.66315C2.74303 5.81515 4.07103 5.39115 5.70303 5.39115C7.35103 5.39115 8.87903 5.71915 10.287 6.37515V9.97515L7.83903 10.1432V8.75115C7.83903 8.51115 7.80703 8.33515 7.74303 8.22315C7.56703 7.91915 6.99903 7.76715 6.03903 7.76715C5.09503 7.76715 4.39103 7.93515 3.92703 8.27115C3.47903 8.60715 3.25503 9.12715 3.25503 9.83115C3.25503 10.3432 3.44703 10.7912 3.83103 11.1752C4.08703 11.4312 4.46303 11.6472 4.95903 11.8232C5.47103 11.9832 6.00703 12.1512 6.56703 12.3272C7.14303 12.5032 7.64703 12.6952 8.07903 12.9032C8.52703 13.1112 8.99103 13.3992 9.47103 13.7672C10.447 14.4872 10.935 15.5992 10.935 17.1032C10.935 18.6072 10.391 19.7912 9.30303 20.6552C8.23103 21.5192 6.80703 21.9512 5.03103 21.9512C3.27103 21.9512 1.68703 21.6232 0.279031 20.9672V17.1752L2.72703 17.0072V18.4712C2.72703 18.7112 2.75903 18.8872 2.82303 18.9992C2.88703 19.1112 3.07903 19.2232 3.39903 19.3352C3.73503 19.4312 4.25503 19.4792 4.95903 19.4792ZM8.43903 0.207153L9.42303 1.02315L6.59103 4.09515C6.25503 4.46315 5.91903 4.64715 5.58303 4.64715L4.62303 4.14315L1.74303 1.04715L2.72703 0.207153L5.60703 2.27115L8.43903 0.207153ZM13.4421 21.6392V19.6952L14.3061 19.6232C14.7221 19.5912 14.9301 19.3672 14.9301 18.9512V7.79115L13.5621 7.71915V5.67915H17.8821L24.6741 16.6952H24.7221V7.79115L23.1381 7.71915V5.67915H28.9941V7.62315L28.1301 7.69515C27.7461 7.72715 27.5541 7.97515 27.5541 8.43915V21.6392H24.7461L17.8101 10.4552H17.7621V19.5272L19.3221 19.5992V21.6392H13.4421ZM35.884 18.9512V15.5432L31.804 7.79115L30.676 7.71915V5.67915H36.532V7.62315L35.812 7.69515C35.556 7.71115 35.388 7.80715 35.308 7.98315C35.244 8.15915 35.276 8.37515 35.404 8.63115L37.444 12.8072H37.54L40.156 7.81515L38.956 7.71915V5.67915H44.116V7.62315L43.396 7.69515C43.092 7.72715 42.82 7.96715 42.58 8.41515L38.812 15.5432V19.5272L40.684 19.5992V21.6392H33.916V19.6952L35.188 19.6232C35.652 19.5912 35.884 19.3672 35.884 18.9512ZM50.4355 18.9512V8.05515H48.5635C48.1955 8.05515 48.0115 8.30315 48.0115 8.79915V9.92715L45.5635 9.75915V5.67915H58.1155V9.75915L55.6675 9.92715V8.79915C55.6675 8.52715 55.6275 8.33515 55.5475 8.22315C55.4675 8.11115 55.2755 8.05515 54.9715 8.05515H53.3395V19.5272L55.2355 19.5992V21.6392H48.4675V19.6952L49.7395 19.6232C50.2035 19.5752 50.4355 19.3512 50.4355 18.9512Z" fill="#E5E5E5"/>
</g>
<defs>
<clipPath id="clip0_200_266">
<rect width="59" height="22" fill="white"/>
</clipPath>
</defs>
</svg>
